<?xml version="1.0" encoding="UTF-8" standalone="no"?><svg xmlns:svg="http://www.w3.org/2000/svg" xmlns="http://www.w3.org/2000/svg" width="322.07703mm" height="62.305592mm" viewBox="0 0 322.07702 62.305593" version="1.1" id="svg8"><defs id="defs2"><rect x="17.386906" y="12.85119" width="58.850201" height="13.677836" id="rect12"/></defs><metadata id="metadata5"/><g id="layer1" transform="translate(-17.778299,-14.633056)"><g aria-label="Blaufußtölpel " id="text10" transform="matrix(5.5908503,0,0,5.5908503,-81.61752,-67.178175)"><path shape-rendering="geometricPrecision" d="m 23.525033,20.633784 q 0,0.349248 -0.148167,0.687914 -0.148166,0.338666 -0.444498,0.603248 -0.296333,0.264583 -0.751415,0.423332 -0.444498,0.15875 -1.037163,0.15875 h -3.365489 v -0.04233 h 0.952497 V 15.4903 h -0.952497 v -0.04233 h 2.868074 q 0.465665,0 0.888997,0.105833 0.423332,0.09525 0.751414,0.296332 0.328083,0.201083 0.518582,0.507999 0.1905,0.306915 0.1905,0.719664 0,0.359832 -0.169333,0.666748 -0.15875,0.296332 -0.423332,0.518581 -0.264583,0.211666 -0.613832,0.338666 -0.338665,0.127 -0.709081,0.137583 0.529165,0.01058 0.973664,0.137583 0.455082,0.126999 0.783164,0.370415 0.328082,0.243416 0.507998,0.592665 0.179917,0.349249 0.179917,0.793748 z m -1.725078,-3.513656 q 0,-0.444498 -0.0635,-0.751414 -0.05292,-0.306916 -0.211666,-0.497415 -0.148166,-0.201083 -0.402165,-0.285749 -0.254,-0.09525 -0.634998,-0.09525 h -0.391583 v 3.227906 h 0.730248 q 0.285749,0 0.465665,-0.07408 0.1905,-0.08467 0.296333,-0.264582 0.116416,-0.179916 0.158749,-0.486832 0.05292,-0.317499 0.05292,-0.772581 z m 0.380998,3.577155 q 0,-0.603248 -0.08467,-0.973663 -0.08467,-0.380999 -0.264582,-0.592665 -0.169333,-0.211666 -0.455082,-0.285749 -0.275166,-0.08467 -0.656165,-0.08467 h -0.624415 v 3.704154 h 0.761998 q 0.719664,0 1.015997,-0.391582 0.306915,-0.402165 0.306915,-1.375829 z" id="path53"/><path shape-rendering="geometricPrecision" d="m 24.161023,22.507028 v -0.04233 h 0.645581 V 14.77064 h -0.645581 v -0.04233 h 1.703911 v 7.736392 h 0.656164 v 0.04233 z" id="path55"/><path shape-rendering="geometricPrecision" d="m 31.230666,22.178945 q -0.05292,0.148167 -0.264582,0.285749 -0.211666,0.127 -0.518582,0.127 -0.338665,0 -0.603248,-0.190499 -0.253999,-0.1905 -0.306916,-0.497415 -0.105833,0.338665 -0.391582,0.518581 -0.285749,0.169333 -0.709081,0.169333 -0.264582,0 -0.529165,-0.0635 -0.253999,-0.0635 -0.465665,-0.201082 -0.211666,-0.137583 -0.349249,-0.349249 -0.126999,-0.211666 -0.126999,-0.497415 0,-0.391583 0.158749,-0.645582 0.169333,-0.253999 0.391582,-0.402165 0.232833,-0.148166 0.465665,-0.211666 0.243416,-0.07408 0.402166,-0.08467 0.222249,-0.02117 0.412748,-0.04233 0.201083,-0.02117 0.349249,-0.05292 0.15875,-0.03175 0.243416,-0.08467 0.09525,-0.05292 0.09525,-0.137582 v -0.804331 q 0,-0.634998 -0.201083,-0.857248 -0.190499,-0.222249 -0.476248,-0.222249 -0.306916,0 -0.486832,0.127 -0.169333,0.116416 -0.169333,0.359832 0,0.137583 0.0635,0.243416 0.0635,0.09525 0.0635,0.232832 0,0.148167 -0.116417,0.275166 -0.116416,0.116417 -0.380998,0.116417 -0.243416,0 -0.359833,-0.15875 -0.105833,-0.158749 -0.105833,-0.338666 0,-0.148166 0.09525,-0.306915 0.105833,-0.15875 0.296333,-0.285749 0.190499,-0.137583 0.465665,-0.22225 0.285749,-0.08467 0.634998,-0.08467 0.80433,0 1.269996,0.465665 0.465665,0.455082 0.465665,1.449912 v 2.27541 q 0,0.359832 0.275166,0.359832 0.137583,0 0.243416,-0.09525 0.105833,-0.09525 0.126999,-0.179916 z m -1.746244,-2.222493 q -0.179916,0.116417 -0.423332,0.148167 -0.243416,0.02117 -0.486832,0.07408 -0.126999,0.02117 -0.232832,0.09525 -0.105833,0.0635 -0.179917,0.211666 -0.07408,0.148167 -0.116416,0.391582 -0.04233,0.232833 -0.04233,0.603249 0,0.338665 0.05292,0.550331 0.05292,0.201083 0.137583,0.306916 0.08467,0.105833 0.1905,0.137583 0.116416,0.03175 0.243416,0.03175 0.391582,0 0.624414,-0.22225 0.232833,-0.222249 0.232833,-0.518581 z" id="path57"/><path d="m 34.898276,22.507028 v -0.740831 q -0.148166,0.455082 -0.497415,0.645581 -0.338665,0.179916 -0.709081,0.179916 -0.80433,0 -1.269996,-0.412749 -0.465665,-0.423332 -0.465665,-1.269996 v -2.868074 h -0.645581 v -0.04233 h 1.703911 v 3.481906 q 0,0.560914 0.201083,0.814914 0.201082,0.253999 0.476248,0.253999 0.518582,0 0.804331,-0.253999 0.285749,-0.254 0.402165,-0.624415 v -3.630072 h -0.656164 v -0.04233 h 1.703911 V 22.4647 h 0.656165 v 0.04233 z" id="path59"/><path shape-rendering="geometricPrecision" d="m 40.513543,15.416217 q 0,0.211666 -0.148166,0.380999 -0.137583,0.158749 -0.359832,0.158749 -0.253999,0 -0.380999,-0.105833 -0.116416,-0.116416 -0.116416,-0.285749 0,-0.09525 0.02117,-0.148166 0.02117,-0.0635 0.05292,-0.105833 0.03175,-0.05292 0.05292,-0.116416 0.02117,-0.0635 0.02117,-0.179917 0,-0.179916 -0.07408,-0.243415 -0.0635,-0.07408 -0.232833,-0.07408 -0.222249,0 -0.380998,0.264583 -0.15875,0.264582 -0.15875,0.984247 v 2.05316 h 0.941914 v 0.04233 h -0.941914 v 4.423819 h 0.645581 v 0.04233 h -2.349492 v -0.04233 h 0.645581 v -4.423819 h -0.793747 v -0.04233 h 0.793747 v -0.253999 q 0,-0.867831 0.137583,-1.460496 0.137583,-0.603248 0.380999,-0.96308 0.243416,-0.370415 0.571498,-0.529165 0.338666,-0.158749 0.730248,-0.158749 0.359832,0 0.645581,0.211666 0.296332,0.201082 0.296332,0.571498 z" id="path61"/><path shape-rendering="geometricPrecision" d="m 43.662572,22.507028 v -0.740831 q -0.148166,0.455082 -0.497415,0.645581 -0.338666,0.179916 -0.709081,0.179916 -0.804331,0 -1.269996,-0.412749 -0.465665,-0.423332 -0.465665,-1.269996 v -2.868074 h -0.645582 v -0.04233 h 1.703912 v 3.481906 q 0,0.560914 0.201082,0.814914 0.201083,0.253999 0.476249,0.253999 0.518582,0 0.804331,-0.253999 0.285749,-0.254 0.402165,-0.624415 v -3.630072 h -0.656165 v -0.04233 h 1.703912 V 22.4647 h 0.656164 v 0.04233 z" id="path63"/><path shape-rendering="geometricPrecision" d="m 50.844167,20.464451 q 0,0.560915 -0.169333,0.96308 -0.158749,0.402165 -0.402165,0.666748 -0.243416,0.253999 -0.539748,0.380999 -0.285749,0.116416 -0.539748,0.116416 -0.518582,0 -0.825498,-0.275166 -0.306916,-0.275166 -0.306916,-0.613831 0,-0.179916 0.09525,-0.275166 0.09525,-0.105833 0.243416,-0.105833 0.148166,0 0.253999,0.08467 0.105833,0.07408 0.105833,0.22225 0,0.09525 -0.05292,0.169333 -0.04233,0.0635 -0.04233,0.201082 0,0.264583 0.148166,0.412749 0.148166,0.148166 0.380999,0.148166 0.158749,0 0.275165,-0.0635 0.116417,-0.07408 0.1905,-0.285749 0.07408,-0.211666 0.105833,-0.603248 0.04233,-0.402165 0.04233,-1.047747 0,-1.291162 -0.253999,-1.83091 -0.253999,-0.539749 -0.814914,-0.539749 -0.1905,0 -0.380999,0.116417 l -0.02117,-0.03175 q 0.275166,-0.15875 0.444499,-0.338666 0.169333,-0.179916 0.264582,-0.412749 0.09525,-0.243415 0.127,-0.560914 0.04233,-0.328083 0.04233,-0.772581 0,-0.846664 -0.211666,-1.174747 -0.201083,-0.338665 -0.730248,-0.338665 -0.391582,0 -0.656164,0.275166 -0.253999,0.275165 -0.253999,0.99483 v 6.519312 h 0.656164 v 0.04233 H 45.65835 v -0.04233 h 0.645582 v -4.720151 q 0,-0.846664 0.158749,-1.428746 0.15875,-0.592664 0.423332,-0.96308 0.275166,-0.380999 0.634998,-0.550332 0.359832,-0.169332 0.751414,-0.169332 0.846664,0 1.375829,0.402165 0.529165,0.402165 0.529165,1.174746 0,0.328083 -0.126999,0.624415 -0.116416,0.296332 -0.338666,0.550332 -0.211666,0.243415 -0.497415,0.444498 -0.285749,0.1905 -0.603248,0.317499 0.116416,-0.02117 0.179916,-0.02117 0.07408,-0.01058 0.169333,-0.01058 0.476248,0 0.825497,0.22225 0.359833,0.211666 0.592665,0.560914 0.232833,0.338666 0.349249,0.751415 0.116416,0.412748 0.116416,0.814914 z" id="path65"/><path shape-rendering="geometricPrecision" d="m 54.313669,21.670947 q -0.105833,0.423332 -0.380999,0.677331 -0.264583,0.253999 -0.740831,0.253999 -0.518582,0 -0.751414,-0.253999 -0.22225,-0.253999 -0.22225,-0.772581 v -3.534822 h -0.80433 v -0.04233 h 0.80433 v -1.12183 q 0.338666,-0.03175 0.624415,-0.211666 0.296332,-0.190499 0.380999,-0.423332 h 0.04233 v 1.756828 h 0.952497 v 0.04233 h -0.952497 v 4.095737 q 0,0.148166 0.08467,0.232833 0.08467,0.07408 0.22225,0.07408 0.211666,0 0.402165,-0.201083 0.201083,-0.201083 0.306916,-0.582081 z" id="path67"/><path shape-rendering="geometricPrecision" d="m 59.326848,20.252785 q 0,0.486832 -0.179916,0.920747 -0.169333,0.423332 -0.465665,0.740831 -0.296333,0.317499 -0.698498,0.507998 -0.402165,0.179916 -0.867831,0.179916 -0.455081,0 -0.857247,-0.179916 -0.402165,-0.190499 -0.698498,-0.507998 -0.296332,-0.317499 -0.476248,-0.740831 -0.169333,-0.433915 -0.169333,-0.920747 0,-0.486832 0.169333,-0.910164 0.179916,-0.433915 0.476248,-0.751414 0.296333,-0.317499 0.698498,-0.497415 0.402166,-0.1905 0.857247,-0.1905 0.465666,0 0.867831,0.1905 0.402165,0.179916 0.698498,0.497415 0.296332,0.317499 0.465665,0.751414 0.179916,0.423332 0.179916,0.910164 z m -1.111246,0 q 0,-0.836081 -0.09525,-1.333496 -0.09525,-0.497415 -0.317499,-0.730248 -0.137583,-0.137583 -0.306916,-0.190499 -0.169333,-0.05292 -0.380999,-0.05292 -0.211666,0 -0.380998,0.05292 -0.15875,0.05292 -0.296333,0.190499 -0.222249,0.232833 -0.317499,0.730248 -0.09525,0.497415 -0.09525,1.333496 0,0.476248 0.02117,0.814914 0.02117,0.338665 0.07408,0.582081 0.05292,0.232833 0.127,0.391582 0.08467,0.15875 0.190499,0.275166 0.137583,0.137583 0.296333,0.1905 0.169332,0.05292 0.380998,0.05292 0.211666,0 0.380999,-0.05292 0.169333,-0.05292 0.306916,-0.1905 0.116416,-0.116416 0.190499,-0.275166 0.07408,-0.158749 0.127,-0.391582 0.05292,-0.243416 0.07408,-0.582081 0.02117,-0.338666 0.02117,-0.814914 z M 56.73394,16.220548 q 0,0.243416 -0.15875,0.402165 -0.148166,0.15875 -0.370415,0.15875 -0.22225,0 -0.380999,-0.15875 -0.15875,-0.158749 -0.15875,-0.402165 0,-0.243416 0.15875,-0.402166 0.158749,-0.158749 0.380999,-0.158749 0.222249,0 0.370415,0.158749 0.15875,0.15875 0.15875,0.402166 z m 1.830911,0 q 0,0.243416 -0.15875,0.402165 -0.148166,0.15875 -0.370415,0.15875 -0.22225,0 -0.380999,-0.15875 -0.15875,-0.158749 -0.15875,-0.402165 0,-0.243416 0.15875,-0.402166 0.158749,-0.158749 0.380999,-0.158749 0.222249,0 0.370415,0.158749 0.15875,0.15875 0.15875,0.402166 z" id="path69"/><path shape-rendering="geometricPrecision" d="m 59.941672,22.507028 v -0.04233 h 0.645581 V 14.77064 h -0.645581 v -0.04233 h 1.703911 v 7.736392 h 0.656165 v 0.04233 z" id="path71"/><path shape-rendering="geometricPrecision" d="m 67.476981,20.284535 q 0,0.433915 -0.179916,0.857247 -0.169333,0.412749 -0.476249,0.740831 -0.296332,0.317499 -0.698498,0.518582 -0.402165,0.201082 -0.857247,0.201082 -0.592665,0 -0.973663,-0.433915 v 3.566572 h 0.645581 v 0.04233 h -2.349493 v -0.04233 h 0.645582 v -7.694059 h -0.645582 v -0.04233 h 1.703912 v 0.338666 q 0.380998,-0.433916 0.973663,-0.433916 0.455082,0 0.857247,0.211666 0.402166,0.201083 0.698498,0.539749 0.306916,0.338665 0.476249,0.761997 0.179916,0.423332 0.179916,0.867831 z m -1.111247,0 q 0,-0.825498 -0.09525,-1.344079 -0.09525,-0.529165 -0.317499,-0.751415 -0.137583,-0.137583 -0.306916,-0.190499 -0.169333,-0.05292 -0.380999,-0.05292 -0.285749,0 -0.539748,0.116417 -0.253999,0.116416 -0.433915,0.349249 v 3.566572 q 0.116416,0.296332 0.391582,0.444498 0.275165,0.137583 0.582081,0.137583 0.211666,0 0.380999,-0.05292 0.169333,-0.04233 0.306916,-0.1905 0.222249,-0.222249 0.317499,-0.719664 0.09525,-0.497415 0.09525,-1.312329 z" id="path73"/><path shape-rendering="geometricPrecision" d="m 69.429433,19.988202 v 0.264583 q 0,0.476248 0.02117,0.814914 0.03175,0.338665 0.07408,0.582081 0.05292,0.232833 0.137583,0.391582 0.08467,0.15875 0.1905,0.275166 0.137582,0.137583 0.296332,0.1905 0.169333,0.05292 0.380999,0.05292 0.571498,0 1.037163,-0.264582 0.465665,-0.275166 0.740831,-0.719665 l 0.03175,0.02117 q -0.306916,0.455082 -0.783164,0.730248 -0.465665,0.275165 -1.02658,0.275165 -0.455082,0 -0.857247,-0.179916 -0.402166,-0.190499 -0.698498,-0.507998 -0.296333,-0.317499 -0.476249,-0.740831 -0.169333,-0.433915 -0.169333,-0.920747 0,-0.486832 0.169333,-0.910164 0.179916,-0.433915 0.476249,-0.751414 0.296332,-0.317499 0.698498,-0.497415 0.402165,-0.1905 0.857247,-0.1905 0.497415,0 0.857247,0.211666 0.359832,0.211666 0.592665,0.518582 0.243416,0.306916 0.359832,0.666748 0.116416,0.359832 0.116416,0.656164 v 0.03175 z m 2.031993,-0.04233 q -0.03175,-1.365246 -0.349249,-1.756828 -0.116416,-0.137583 -0.264582,-0.190499 -0.137583,-0.05292 -0.317499,-0.05292 -0.211666,0 -0.380999,0.05292 -0.15875,0.05292 -0.296332,0.190499 -0.211666,0.211666 -0.306916,0.634998 -0.08467,0.423332 -0.105833,1.12183 z" id="path75"/><path shape-rendering="geometricPrecision" d="m 73.026103,22.507028 v -0.04233 h 0.645581 V 14.77064 h -0.645581 v -0.04233 h 1.703911 v 7.736392 h 0.656164 v 0.04233 z" id="path77"/></g></g></svg>